#!OML:ASF H:\Terrain\Patient Classification 1\Terrain2\Thursday\justin.ASF
:FULLY-SPECIFIED
:DEGREES
4299
root 21.4161 20.4381 -0.321486 9.23437 266.316 -8.99326
lowerback 9.61853 0.653877 -2.83528
upperback 1.02825 0.595865 1.3951
thorax -4.36972 0.340141 2.97433
lowerneck -14.9772 -0.264402 -8.07635
upperneck 38.7046 -1.15251 4.2892
head 16.4881 -1.63071 2.97655
rclavicle 1.46604e-014 8.74653e-015
rhumerus -29.172 -2.64313 -84.1394
rradius 37.8424
rwrist -11.0419
rhand -20.3869 9.23588
rfingers 7.12502
rthumb 5.96626 -20.6601
lclavicle 1.46604e-014 8.74653e-015
lhumerus -33.588 5.42859 84.9119
lradius 32.801
lwrist 5.98536
lhand -20.0543 22.2218
lfingers 7.12502
lthumb 6.28735 52.1085
rfemur -26.3169 -8.41013 17.4923
rtibia 86.1456
rfoot -8.74864 -4.61567
rtoes 11.961
lfemur -15.9865 5.61838 -24.0009
ltibia 39.0371
lfoot -16.8363 -10.7394
ltoes 25.0939
4300
root 21.3125 20.4976 -0.318144 15.4422 266.372 -15.398
lowerback 9.70559 0.707967 -3.01685
upperback 1.07525 0.634467 1.14425
thorax -4.37111 0.359609 2.80926
lowerneck -14.874 -0.374293 -7.8502
upperneck 38.5762 -1.4219 4.35642
head 16.4168 -1.69287 2.91471
rclavicle 4.72114e-015 -2.38542e-015
rhumerus -29.1691 -3.21171 -84.0794
rradius 37.9064
rwrist -11.32
rhand -20.8714 9.35309
rfingers 7.12502
rthumb 5.49848 -20.5556
lclavicle 4.72114e-015 -2.38542e-015
lhumerus -33.43 4.42723 84.9766
lradius 33.234
lwrist 6.4506
lhand -20.1447 22.38
lfingers 7.12502
lthumb 6.20011 52.2693
rfemur -27.4329 -8.55432 17.1763
rtibia 86.8344
rfoot -9.46667 -4.64812
rtoes 12.4706
lfemur -14.8356 5.63852 -24.4708
ltibia 37.8082
lfoot -17.1379 -9.88909
ltoes 18.316
4301
root 21.2107 20.5015 -0.327274 10.6789 266.577 -10.8042
lowerback 9.68978 0.675487 -2.76604
upperback 1.09446 0.622602 1.25199
thorax -4.33984 0.349062 2.78173
lowerneck -14.6505 -0.43384 -7.74955
upperneck 38.4836 -1.56218 4.33647
head 16.3239 -1.73902 2.85867
rclavicle 2.03754e-015 5.1684e-015
rhumerus -29.2504 -3.52323 -83.8743
rradius 37.8699
rwrist -11.2478
rhand -20.9819 9.90681
rfingers 7.12502
rthumb 5.39184 -20.0046
lclavicle 2.03754e-015 5.1684e-015
lhumerus -33.6823 3.50951 85.21
lradius 33.9602
lwrist 7.33584
lhand -20.2486 22.4468
lfingers 7.12502
lthumb 6.09978 52.339
rfemur -28.5836 -8.51698 17.7955
rtibia 87.4539
rfoot -10.5305 -3.7078
rtoes 10.4636
lfemur -13.5259 5.32106 -24.0535
ltibia 36.5492
lfoot -16.8605 -9.98994
ltoes 18.1573
4302
root 21.1087 20.5277 -0.331707 10.6967 266.765 -10.9262
lowerback 9.66418 0.66415 -2.66553
upperback 1.08217 0.616556 1.18918
thorax -4.33613 0.344203 2.6601
lowerneck -14.5215 -0.50894 -7.69439
upperneck 38.528 -1.79383 4.51091
head 16.3363 -1.80942 2.8854
rclavicle 2.60905e-015 -1.19271e-015
rhumerus -29.3456 -4.09268 -83.6986
rradius 37.8095
rwrist -11.064
rhand -20.6483 10.3008
rfingers 7.12502
rthumb 5.71395 -19.6021
lclavicle 2.60905e-015 -1.19271e-015
lhumerus -33.6509 2.94604 85.2012
lradius 34.2237
lwrist 7.70834
lhand -20.1215 22.127
lfingers 7.12502
lthumb 6.22256 52.0156
rfemur -29.7207 -8.54884 18.0153
rtibia 87.8191
rfoot -11.1348 -3.05343
rtoes 11.1255
lfemur -12.3849 4.93686 -24.0063
ltibia 35.4399
lfoot -16.7207 -9.85712
ltoes 18.8445
4303
root 21.0137 20.5576 -0.326059 24.99 266.709 -25.1736
lowerback 9.59164 0.675844 -3.29806
upperback 1.03375 0.555618 0.887827
thorax -4.34531 0.324613 2.71096
lowerneck -14.4538 -0.547832 -7.51868
upperneck 38.4623 -1.8982 4.47938
head 16.2916 -1.8285 2.81962
rclavicle -5.26779e-015 9.93923e-016
rhumerus -29.4053 -4.45792 -83.5599
rradius 37.8258
rwrist -10.9393
rhand -20.4268 10.2602
rfingers 7.12502
rthumb 5.92781 -19.6369
lclavicle -5.26779e-015 9.93923e-016
lhumerus -33.0573 2.18442 85.1566
lradius 33.9707
lwrist 8.16384
lhand -20.0825 21.8468
lfingers 7.12502
lthumb 6.26015 51.7343
rfemur -31.1729 -8.72718 17.2486
rtibia 88.1751
rfoot -11.7328 -2.60581
rtoes 12.4761
lfemur -11.444 4.56738 -24.9269
ltibia 34.1981
lfoot -16.4832 -9.5906
ltoes 20.2255
